<?xml version="1.0" encoding="UTF-8" standalone="no"?>
<!-- Created with Inkscape (http://www.inkscape.org/) -->

<svg
   width="720"
   height="180"
   viewBox="0 0 190.5 47.625001"
   version="1.1"
   id="svg1041"
   inkscape:version="1.1 (c68e22c387, 2021-05-23)"
   sodipodi:docname="dessin.svg"
   xmlns:inkscape="http://www.inkscape.org/namespaces/inkscape"
   xmlns:sodipodi="http://sodipodi.sourceforge.net/DTD/sodipodi-0.dtd"
   xmlns="http://www.w3.org/2000/svg"
   xmlns:svg="http://www.w3.org/2000/svg">
  <sodipodi:namedview
     id="namedview1043"
     pagecolor="#505050"
     bordercolor="#eeeeee"
     borderopacity="1"
     inkscape:pageshadow="0"
     inkscape:pageopacity="0"
     inkscape:pagecheckerboard="0"
     inkscape:document-units="mm"
     showgrid="false"
     inkscape:zoom="0.74118967"
     inkscape:cx="360.90627"
     inkscape:cy="437.80966"
     inkscape:window-width="1920"
     inkscape:window-height="1017"
     inkscape:window-x="-8"
     inkscape:window-y="-8"
     inkscape:window-maximized="1"
     inkscape:current-layer="layer1"
     units="px" />
  <defs
     id="defs1038" />
  <g
     inkscape:label="Calque 1"
     inkscape:groupmode="layer"
     id="layer1">
    <path
       style="display:inline;fill:#000000;stroke-width:0.13928"
       d="m 15.292964,45.412087 c -0.03783,-0.06119 -0.05717,-0.609619 -0.04303,-1.218706 0.02472,-1.06241 0.05062,-1.143731 0.637835,-1.999999 0.661704,-0.964862 2.060121,-3.798091 2.186271,-4.429435 l 0.07762,-0.388525 -1.368363,-0.03021 c -0.752607,-0.01658 -1.869774,-0.12628 -2.482618,-0.243717 -0.612834,-0.117427 -1.150607,-0.213524 -1.195055,-0.213534 -0.04445,-2e-5 -0.326495,0.485057 -0.626765,1.077926 -1.331874,2.629724 -3.9810469,4.214727 -7.0444803,4.214727 -2.5701234,0 -4.2957441,-1.062963 -4.2957441,-2.646139 0,-1.332924 1.4118241,-2.700376 3.4719768,-3.362841 1.7509442,-0.563031 4.79057,-0.470843 7.8157766,0.237035 0.327007,0.0765 0.372079,0.02586 0.586865,-0.659069 0.916809,-2.923692 0.863359,-8.719808 -0.115996,-12.580832 C 12.526685,21.707879 11.95217,20.019999 10.953502,17.458251 9.8336068,14.585551 8.9703191,12.028254 8.6519664,10.64053 8.3654828,9.3917298 8.3504958,9.1589487 8.5003349,8.2851508 8.8194851,6.4239964 9.5102008,5.4133567 10.884549,4.7965912 c 0.585024,-0.26255 0.839433,-0.4542707 0.839433,-0.6325678 0,-0.3739659 0.25782,-0.4249361 2.149096,-0.4249361 h 1.708462 l 0.247784,-0.5494796 c 0.136274,-0.3022089 0.394173,-0.6870124 0.573093,-0.8551036 0.3011,-0.282863 0.349607,-0.2897032 0.651646,-0.091794 0.179481,0.1175948 0.479523,0.5062576 0.666758,0.8636809 l 0.340439,0.6498704 1.751378,-0.043429 c 1.326852,-0.032967 1.801985,-0.094064 1.96017,-0.2523244 0.114843,-0.11491 0.438573,-0.3325106 0.719411,-0.4835559 0.487996,-0.262471 0.528582,-0.2640206 0.916572,-0.034842 0.509512,0.3009751 0.70151,0.3007382 1.132866,-0.00197 0.272815,-0.1910988 0.648241,-0.2417533 1.806817,-0.2437865 1.346254,-0.00197 1.584183,-0.046094 2.994538,-0.5505358 1.897846,-0.6787805 2.847859,-0.717857 4.317712,-0.177616 1.77577,0.6526934 2.697126,0.8316813 3.87737,0.7532421 0.948228,-0.062973 1.126753,-0.037606 1.357988,0.193675 0.318565,0.3185639 0.861661,0.3468127 1.101919,0.057347 0.269554,-0.324792 0.655831,-0.2507451 1.453264,0.2785596 l 0.734421,0.4874843 h 1.663801 1.663793 l 0.173789,-0.4805953 c 0.239721,-0.6629584 0.932096,-1.2350015 1.273577,-1.0522431 0.394243,0.2109875 1.115651,1.7688072 1.115651,2.4091429 0,0.451734 -0.08934,0.6375127 -0.486913,1.0124657 -0.3124,0.2946285 -0.456814,0.5376353 -0.402937,0.6780304 0.04619,0.1203486 0.132633,0.2188147 0.192099,0.2188147 0.05946,0 0.137134,0.110883 0.172572,0.2464121 0.03719,0.1421619 0.213705,0.2587599 0.417253,0.2756086 0.763164,0.06317 1.095051,0.3009355 1.405112,1.0067015 0.216745,0.4933575 0.384856,0.6947709 0.583106,0.6986203 0.429185,0.0079 0.546278,0.138125 1.045037,1.1582698 0.479466,0.9806926 0.961343,1.4892206 1.411168,1.4892206 0.218875,0 0.25977,0.109639 0.25977,0.696408 0,0.676817 -0.01144,0.6964 -0.407035,0.6964 -0.347387,0 -0.431869,0.0765 -0.576457,0.522306 -0.196198,0.604863 -0.557506,1.17121 -1.155141,1.810648 l -0.423065,0.452662 h -3.406628 -3.406619 l -0.553384,-0.581726 c -0.56027,-0.588961 -1.066206,-1.514232 -1.071804,-1.960153 -0.0024,-0.17728 -0.116975,-0.243737 -0.420902,-0.243737 -0.408551,0 -0.417837,-0.01549 -0.417837,-0.6964 0,-0.58139 0.04201,-0.696408 0.254282,-0.696408 0.354929,0 0.75962,-0.470587 1.37874,-1.6032325 C 42.89379,9.0144124 43.074961,8.8102551 43.3916,8.7535304 43.697461,8.6987504 43.826122,8.564149 43.967915,8.1507117 44.209358,7.4466923 44.594522,7.1587757 45.465974,7.0308764 45.731272,6.9919874 46.266053,6.358225 46.264766,6.0843144 46.264142,5.9814955 46.071173,5.7876823 45.835636,5.653614 45.059318,5.21177 42.013407,5.3400938 41.669375,5.8291376 41.580985,5.9547865 40.670564,6.437987 40.485492,6.4574809 40.408892,6.4653809 40.2386,6.3819739 40.10708,6.2718106 39.863703,6.0678902 39.222867,5.9993113 39.062211,6.1599604 c -0.04872,0.04866 0.07382,0.2602205 0.272285,0.4700829 0.711468,0.752423 0.809176,2.1216612 0.295597,4.1421507 -0.861314,3.388494 -3.75242,5.174613 -5.51802,3.409024 l -0.537378,-0.537379 -0.56271,0.562716 C 32.52151,14.69702 32.46063,14.82561 32.5378,15.208143 c 0.04872,0.241389 0.121728,0.626913 0.162292,0.856722 0.04059,0.229811 0.230065,0.739582 0.421114,1.132825 0.191057,0.393243 0.38457,1.075399 0.430029,1.515911 0.06419,0.621552 0.1406,0.816075 0.341346,0.868576 0.142267,0.03721 0.288837,0.201166 0.325696,0.364381 0.03688,0.163206 0.161779,0.766805 0.277601,1.341345 0.371621,1.843525 0.386158,1.875308 0.880217,1.923939 l 0.443485,0.04363 v 1.087322 1.087312 l 0.661579,0.181249 c 1.944749,0.532749 4.107489,1.848076 5.569573,3.387279 1.548042,1.629686 2.365358,3.323301 2.689167,5.572416 0.42042,2.920129 1.338484,5.323319 2.976124,7.79052 0.476673,0.718143 0.499556,0.807775 0.499556,1.956905 V 45.52276 H 31.788652 c -9.034806,0 -16.457873,-0.05004 -16.495696,-0.111257 z M 7.8435572,41.48959 c 1.0728937,-0.331376 2.3264768,-1.113646 3.1523368,-1.967111 0.569667,-0.588705 1.702974,-2.541771 1.558655,-2.686094 -0.03806,-0.03809 -0.726265,-0.20844 -1.52932,-0.378614 C 9.2632222,36.084397 6.5023179,36.015758 5.3170681,36.315855 3.65915,36.735629 2.598598,37.388085 1.8143119,38.470748 c -0.94402705,1.303196 -0.06625,2.699577 2.0403094,3.24578 0.9226283,0.239216 2.8312367,0.130643 3.9889359,-0.226938 z M 33.499696,41.211208 c 1.379782,-0.352883 2.177925,-0.824644 3.297391,-1.948989 0.99949,-1.003859 1.549551,-1.993624 1.874884,-3.373629 1.027821,-4.35985 -2.377962,-8.5972 -6.9195,-8.608975 -3.260791,-0.0089 -6.294606,2.411245 -6.944308,5.538611 -0.208817,1.005161 -0.09906,2.941764 0.218694,3.858635 0.565347,1.631285 2.016637,3.292949 3.480481,3.985006 1.795731,0.848964 3.211677,1.004767 4.992358,0.549341 z m -3.917277,-0.878457 c -0.398642,-0.424324 -0.393391,-0.949236 0.01335,-1.331316 0.899683,-0.845204 2.25613,0.226287 1.527418,1.206556 -0.38262,0.514697 -1.118448,0.574294 -1.540746,0.12476 z m 2.886644,0.05892 c -0.706208,-0.571846 -0.239872,-1.693072 0.704187,-1.693072 0.622066,0 1.021394,0.381171 1.021394,0.974969 0,0.870126 -1.015803,1.292851 -1.725581,0.718103 z M 27.28091,39.100962 c -0.64292,-0.374015 -0.564494,-1.461516 0.128147,-1.777099 0.508614,-0.231744 0.724394,-0.195698 1.104614,0.184515 0.878575,0.878576 -0.158059,2.217798 -1.232761,1.592584 z m 7.799732,0 c -0.64292,-0.374015 -0.564502,-1.461516 0.128148,-1.777099 0.508613,-0.231744 0.724393,-0.195698 1.104612,0.184515 0.88862,0.888624 -0.145772,2.224944 -1.23276,1.592584 z m -4.484094,-1.044441 c -0.882159,-0.279043 -1.769594,-1.000295 -2.262525,-1.838837 -0.338124,-0.575191 -0.383607,-0.793809 -0.382138,-1.836784 0.0016,-1.381151 0.259107,-2.004717 1.163811,-2.822066 0.771857,-0.697328 1.270126,-0.928046 2.218211,-1.027143 3.0633,-0.320173 5.230288,2.79969 3.872387,5.575159 -0.810383,1.656355 -2.832838,2.511755 -4.609746,1.949671 z m 2.198156,-0.938546 c 1.591882,-0.667074 2.33889,-2.454961 1.638257,-3.920957 -0.575905,-1.205026 -1.404742,-1.741022 -2.692199,-1.741022 -1.747375,0 -2.885224,1.158556 -2.885224,2.937736 0,1.250617 0.56023,2.102858 1.74101,2.648498 0.660403,0.30517 1.575427,0.336706 2.198156,0.0757 z m -7.11636,-0.653295 c -0.302583,-0.281896 -0.399874,-0.882978 -0.195053,-1.205124 0.05803,-0.0913 0.283064,-0.25806 0.500069,-0.37065 0.732218,-0.379878 1.479368,0.141915 1.479368,1.033144 0,0.739266 -1.186149,1.099976 -1.784384,0.54263 z m 10.650314,0.02931 c -0.126782,-0.14008 -0.230506,-0.481247 -0.230506,-0.758148 0,-0.571214 0.380654,-0.937067 0.974964,-0.937067 0.195724,0 0.495157,0.09751 0.665408,0.216811 0.398318,0.278994 0.430574,1.162584 0.05488,1.502605 -0.344221,0.311517 -1.173295,0.297817 -1.464713,-0.02419 z M 25.715393,33.621223 c -0.188033,-0.188039 -0.341876,-0.504264 -0.341876,-0.702736 0,-0.198482 0.153843,-0.514706 0.341876,-0.702736 0.188026,-0.188029 0.504255,-0.341877 0.702734,-0.341877 0.453797,0 1.044601,0.576603 1.044601,1.019493 0,0.938734 -1.084643,1.390548 -1.747335,0.727856 z m 10.661314,0.06337 c -0.266064,-0.266064 -0.339878,-0.516039 -0.287905,-0.974978 0.03585,-0.316581 0.680269,-0.835679 1.03744,-0.835679 0.832027,0 1.269968,1.411226 0.578533,1.864273 -0.46452,0.304361 -0.991348,0.283089 -1.328068,-0.0536 z m -9.263805,-2.508864 c -0.605579,-0.669156 -0.137387,-1.66957 0.781364,-1.66957 0.606376,0 0.961272,0.371389 0.961272,1.005961 0,0.836054 -1.179935,1.285389 -1.742636,0.663609 z m 7.833796,0.03662 c -0.388629,-0.431235 -0.425031,-0.915787 -0.09984,-1.329194 0.586288,-0.745356 1.808412,-0.341236 1.808412,0.597972 0,0.23213 -0.123804,0.541652 -0.278563,0.696409 -0.34974,0.349744 -1.129099,0.368715 -1.430009,0.03484 z m -5.370477,-1.471426 c -0.414024,-0.440708 -0.388022,-1.004806 0.0657,-1.425301 0.468729,-0.434402 0.944185,-0.434293 1.378802,2.08e-4 0.417798,0.4178 0.436133,0.893539 0.05322,1.380351 -0.377337,0.479717 -1.069577,0.500345 -1.497702,0.04461 z m 3.071795,0.22914 c -0.09737,-0.03918 -0.272278,-0.255404 -0.388693,-0.480526 -0.262605,-0.507827 -0.05511,-1.043754 0.530904,-1.371132 0.344489,-0.192451 0.421557,-0.192451 0.766046,0 0.583951,0.326232 0.793461,0.863393 0.533114,1.366838 -0.275539,0.532839 -0.845529,0.724559 -1.441371,0.48482 z m -14.254237,6.624589 c 0.08295,-0.237973 0.216412,-0.974426 0.296566,-1.636545 0.364412,-3.010275 1.742898,-5.432446 4.093893,-7.193505 1.147213,-0.859328 2.872423,-1.755215 4.016912,-2.08593 l 0.80086,-0.231429 v -1.104358 -1.104368 h 0.470379 0.470388 l 0.282779,-1.149061 c 0.155524,-0.631995 0.326715,-1.4231 0.380418,-1.758019 0.06893,-0.429713 0.175169,-0.629202 0.361086,-0.677813 0.156465,-0.04087 0.263451,-0.191819 0.263451,-0.371597 0,-0.484168 0.412973,-1.935023 0.617051,-2.167794 0.102707,-0.117151 0.22461,-0.463707 0.270897,-0.77012 0.04627,-0.306414 0.122833,-0.81054 0.170101,-1.120279 0.07865,-0.515339 0.04209,-0.607004 -0.430819,-1.07989 l -0.516762,-0.516759 -0.288031,0.366178 c -0.36265,0.461031 -1.275259,0.882177 -1.911656,0.882177 -0.623874,0 -1.449055,-0.384793 -2.168623,-1.011242 -1.882819,-1.6392 -2.685946,-6.284509 -1.273506,-7.3660572 L 24.606698,6.2627453 24.258884,6.1319836 C 24.005289,6.0366365 23.797886,6.0611149 23.493225,6.2223956 22.915181,6.5283157 22.895354,6.5244958 22.002724,5.9350119 L 21.20863,5.4106029 h -1.527575 c -1.6441,0 -2.383156,0.2286553 -2.384949,0.7378739 -0.0016,0.339489 0.663948,0.9334938 1.045281,0.9334938 0.469747,0 1.017501,0.5091693 1.198831,1.1143771 0.138523,0.4623643 0.226274,0.5485221 0.59529,0.5844698 0.37909,0.036915 0.484687,0.1495548 0.850661,0.9072582 0.470869,0.9748893 1.111562,1.7116093 1.488505,1.7116093 0.210158,0 0.252506,0.116805 0.252506,0.696398 v 0.696409 l -0.731224,0.003 c -0.806024,0.003 -1.062139,0.156365 -1.685603,1.006682 -0.288441,0.393381 -0.481686,0.522306 -0.782919,0.522306 -0.333521,0 -0.42665,0.08093 -0.560697,0.487051 -0.08841,0.26788 -0.290084,0.577649 -0.448167,0.688374 -0.601646,0.421413 0.0169,1.91928 0.826184,2.000651 0.527248,0.053 1.153933,-0.618701 1.153933,-1.236828 0,-0.341453 0.05622,-0.407169 0.348201,-0.407169 h 0.3482 v 4.178433 4.178434 h -0.3482 c -0.273107,0 -0.348201,-0.07087 -0.348201,-0.328879 0,-0.272035 -0.138397,-0.381744 -0.800868,-0.634837 -2.027763,-0.774681 -3.302713,-1.775648 -3.917238,-3.075438 -0.321709,-0.680459 -0.367807,-0.973063 -0.412579,-2.619034 -0.04699,-1.727017 -0.07273,-1.875328 -0.37909,-2.181682 -0.180785,-0.180775 -0.369379,-0.490772 -0.419101,-0.688879 -0.06933,-0.27619 -0.178139,-0.360197 -0.46658,-0.360197 -0.282954,0 -0.540072,-0.189845 -1.037535,-0.766043 -0.65069,-0.753697 -0.673581,-0.766054 -1.419373,-0.766054 h -0.758015 v -0.696408 c 0,-0.579585 0.04232,-0.6964 0.252498,-0.6964 0.369962,0 0.946451,-0.665672 1.457369,-1.6828266 0.394093,-0.7845803 0.502383,-0.8990561 0.885761,-0.9363263 0.360495,-0.035039 0.451428,-0.1156799 0.52063,-0.461703 0.110587,-0.5529248 0.804398,-1.2368577 1.254737,-1.2368577 0.382881,0 1.061546,-0.6232504 1.060078,-0.9735375 -6.23e-4,-0.1157287 -0.193592,-0.3200636 -0.429129,-0.454122 -0.346763,-0.1973666 -0.769702,-0.2437372 -2.22272,-0.2437372 -1.625915,0 -1.807884,-0.025071 -1.937335,-0.266962 C 11.604599,4.9088165 11.534473,4.8961925 11.150139,5.0390354 10.483618,5.28677 9.5562201,6.1733599 9.1937827,6.9092993 8.9157797,7.473782 8.8687339,7.780995 8.8687339,9.0317599 c 0,1.7404401 0.2307439,2.5917241 1.8422791,6.7967081 2.529687,6.600723 3.064215,8.686792 3.219218,12.563333 0.120813,3.021377 -0.02819,5.321049 -0.445111,6.871149 -0.240021,0.892335 -0.285796,1.247567 -0.166642,1.293286 0.524753,0.201364 2.421666,0.44294 3.5801,0.45593 l 1.344366,0.0151 z M 29.029643,13.355978 c 0.210664,-0.235753 0.383023,-0.517589 0.383023,-0.626301 0,-0.388602 -0.275326,-0.912203 -0.479665,-0.912203 -0.127801,0 -0.177042,0.08065 -0.127706,0.209251 0.149491,0.389561 -0.07888,0.897151 -0.444969,0.989034 -0.513019,0.128758 -0.897598,-0.272224 -0.897598,-0.935873 0,-0.719693 0.413526,-1.09809 1.200016,-1.09809 0.505912,0 0.648147,0.07008 0.994366,0.490129 l 0.404003,0.49013 0.267722,-0.300432 c 0.71705,-0.804657 1.966961,-0.83945 2.730409,-0.076 0.326833,0.326835 0.456553,0.38811 0.50622,0.239108 0.282148,-0.846447 1.554446,-1.137434 2.190812,-0.501066 0.422062,0.422064 0.450489,1.081607 0.06333,1.46878 -0.353033,0.353031 -0.622524,0.352448 -0.977088,-0.002 -0.198251,-0.198255 -0.255175,-0.382316 -0.193821,-0.626764 0.04777,-0.190339 0.02993,-0.346073 -0.03964,-0.346073 -0.247184,0 -0.460801,0.339983 -0.460801,0.733403 0,1.24353 1.440076,1.726513 2.74433,0.920435 1.128831,-0.697643 2.088871,-2.496021 2.229788,-4.1768836 0.06262,-0.7473396 0.0304,-1.0224644 -0.152413,-1.3015279 -0.251237,-0.3834246 -0.619123,-0.45607 -0.91032,-0.179751 -0.150921,0.1432083 -0.172059,0.046489 -0.119123,-0.5448207 l 0.06435,-0.7188964 -0.639959,-0.056557 C 36.564858,6.4222395 35.274234,6.6793609 33.709681,7.2210431 32.234142,7.7319002 31.402155,7.7516013 30.064034,7.3074082 27.885848,6.5843099 27.250731,6.4580391 26.026615,6.5047256 l -0.53084,0.020235 0.09394,0.6264384 0.09395,0.6264285 -0.40199,-0.080443 c -0.744726,-0.1489428 -1.084959,0.577255 -0.8763,1.8704124 0.205444,1.2732391 0.675539,2.3432591 1.367676,3.1130931 1.163897,1.294529 2.462616,1.563781 3.256646,0.675188 z m 94.812887,25.605739 c -2.51138,-0.204502 -4.68445,-1.301073 -7.15126,-3.608641 -1.62322,-1.518466 -3.07369,-3.473417 -4.75142,-6.404087 -0.80623,-1.408324 -2.85852,-5.423158 -2.85852,-5.592028 0,-0.06514 0.45441,-0.118967 1.00979,-0.119549 2.05704,-0.002 4.23448,-0.556054 5.07016,-1.289792 1.02033,-0.895858 1.44797,-2.553546 1.17931,-4.571222 -0.28599,-2.147768 -1.26495,-3.552953 -2.90188,-4.165406 -1.08309,-0.405244 -2.94442,-0.697149 -4.44526,-0.697149 h -1.30492 l 7.8e-4,8.043466 c 8e-4,5.183033 0.0527,8.230577 0.1469,8.569592 0.16481,0.593481 0.82939,1.413772 1.45406,1.794726 0.41096,0.250618 0.35128,0.254773 -3.6213,0.252276 l -4.03915,-0.002 0.62677,-0.283377 c 0.34472,-0.155871 0.8358,-0.483535 1.09132,-0.728171 0.95247,-0.911957 0.91971,-0.681091 1.01163,-7.130275 0.0754,-5.292968 0.11013,-5.944161 0.36442,-6.841244 0.36286,-1.280118 0.91986,-2.494491 1.44578,-3.152159 l 0.41768,-0.522306 h -1.43784 c -2.43912,0 -4.72706,0.378644 -6.052462,1.001647 -0.988944,0.464862 -1.901631,1.385712 -2.347878,2.368892 -0.344453,0.758898 -0.398049,1.047012 -0.39644,2.131057 0.004,2.946551 1.392236,5.239531 4.12392,6.813321 l 1.15305,0.664329 -0.76605,-0.07422 c -3.793349,-0.367698 -6.319332,-3.700415 -5.716879,-7.542676 0.422567,-2.694928 2.273244,-4.476783 5.497099,-5.292652 1.59574,-0.403834 3.39729,-0.62564 5.09461,-0.627248 0.82662,-6.32e-4 1.45612,-0.07067 1.67744,-0.186144 0.27269,-0.14231 0.38982,-0.14686 0.50856,-0.01974 0.10139,0.108554 0.98232,0.192501 2.57061,0.244992 5.3762,0.177645 7.80458,1.094714 8.83712,3.337286 0.35927,0.780296 0.40106,1.018822 0.39679,2.264957 -0.004,1.225773 -0.0519,1.496555 -0.39842,2.25796 -0.46749,1.027409 -1.61975,2.194453 -2.71423,2.749085 -0.94922,0.48099 -2.64174,0.912391 -3.57968,0.912391 -0.40454,0 -0.76655,0.05014 -0.80444,0.111456 -0.11184,0.180952 3.18938,5.584704 4.41308,7.223747 1.38416,1.854007 4.74146,5.23346 5.83769,5.876233 1.52407,0.893638 2.42527,1.180942 3.90982,1.246462 0.85947,0.0379 1.60641,-0.0059 2.01957,-0.117792 0.75578,-0.205185 2.32138,-0.958841 3.23234,-1.556004 0.58968,-0.386571 0.57243,-0.357927 -0.2918,0.484177 -1.81317,1.766774 -4.16644,2.448714 -7.51051,2.176401 z M 83.871494,38.125921 C 82.199298,38.028406 80.962618,37.745134 79.762715,37.184658 78.750259,36.711733 76.625608,35.116268 74.77542,33.439531 74.024123,32.758668 73.054997,31.98684 72.621807,31.72437 l -0.787626,-0.47725 h -3.626547 -3.626545 l -0.930334,0.440768 c -0.511693,0.242416 -1.229153,0.712478 -1.594362,1.044594 l -0.664019,0.603855 0.480116,-0.682945 c 1.050231,-1.493939 2.073774,-1.965848 4.890599,-2.254881 2.270516,-0.232959 2.71719,-0.381595 3.235405,-1.076592 0.287976,-0.386226 0.293795,-0.52054 0.33161,-7.657557 0.02772,-5.235503 -0.0063,-7.372393 -0.121617,-7.650982 -0.221798,-0.535465 -0.990575,-1.177291 -1.619258,-1.351876 -0.774109,-0.214976 -3.176445,-0.175425 -4.215172,0.06939 -2.28878,0.539431 -3.553749,2.103459 -3.833861,4.740251 -0.181384,1.707463 0.398816,3.426425 1.542586,4.570185 0.877083,0.877086 1.572316,1.19102 2.637589,1.19102 1.462194,0 2.606012,-0.715291 3.219724,-2.013452 0.374053,-0.791233 0.423151,-0.695531 0.134765,0.262698 -0.474067,1.575201 -1.649564,2.335905 -3.595893,2.327032 -3.072948,-0.01402 -4.82206,-1.525722 -5.190277,-4.485845 -0.203897,-1.639131 0.439955,-3.882404 1.441806,-5.023449 0.618346,-0.704256 2.055225,-1.604368 3.250747,-2.036371 l 1.017692,-0.367758 6.337285,-0.03791 6.337279,-0.0379 -1.183894,0.355557 c -1.446176,0.434333 -1.925211,0.702776 -2.33248,1.307115 l -0.313846,0.46573 v 7.489021 c 0,8.568151 -0.102671,7.812659 1.360433,10.011563 1.927522,2.896885 5.202152,5.278233 8.151042,5.92752 1.614821,0.355548 3.848006,0.254615 4.695173,-0.212211 0.803039,-0.442515 1.179413,-1.149199 1.042778,-1.957912 -0.09376,-0.555254 -0.309266,-0.820469 -1.386234,-1.706328 l -0.413102,-0.33979 0.510788,-0.510778 c 0.484849,-0.484859 0.551414,-0.508646 1.311339,-0.46881 0.749905,0.03928 0.818622,0.07284 1.086206,0.529453 0.233749,0.398928 0.285647,0.727875 0.285647,1.810657 0,1.187802 -0.03859,1.388831 -0.377322,1.964999 -0.413684,0.703684 -0.802564,1.009781 -1.686893,1.327812 -0.780938,0.280859 -2.763349,0.417129 -4.55164,0.312879 z m 73.816176,-8.213394 c -1.50029,-0.164537 -2.41009,-0.852458 -3.1151,-2.355418 -0.3629,-0.773654 -0.43336,-1.108267 -0.48142,-2.28685 -0.0325,-0.796435 0.0159,-1.709872 0.11405,-2.158842 0.43409,-1.98316 1.69322,-3.631718 3.42497,-4.484255 0.80765,-0.397615 1.11433,-0.469126 2.21894,-0.517441 1.54076,-0.06731 2.11823,0.138925 3.24938,1.160974 l 0.74221,0.670599 -3.37227,3.374389 c -3.20404,3.206032 -3.3622,3.38879 -3.17012,3.663046 0.55856,0.797422 1.44127,1.132587 2.98607,1.133791 1.08982,7.9e-4 1.80548,-0.201422 2.69155,-0.760782 0.7959,-0.502409 0.57799,-0.116786 -0.53249,0.942435 -1.36883,1.305644 -2.8893,1.823045 -4.75577,1.618354 z m 0.80995,-5.328668 c 1.63214,-1.658605 2.03932,-2.374617 1.88914,-3.322047 -0.0648,-0.40863 -0.23898,-0.744438 -0.54615,-1.052698 -0.38576,-0.387182 -0.54929,-0.452671 -1.13036,-0.452671 -0.39181,0 -0.81142,0.09249 -0.99145,0.218618 -0.78004,0.54636 -1.40293,2.776752 -1.21817,4.361833 0.10449,0.896105 0.32845,1.687189 0.4777,1.687189 0.0561,0 0.73979,-0.648093 1.51929,-1.440224 z m -81.370818,4.871466 c -0.273289,-0.257752 -0.638144,-0.774828 -0.810785,-1.14907 -0.274672,-0.595427 -0.313896,-0.906647 -0.313896,-2.491086 0,-1.122007 0.07383,-2.075518 0.19411,-2.507057 0.348193,-1.249294 1.111483,-2.530419 1.994935,-3.348341 1.500571,-1.389274 2.727993,-1.817319 5.62845,-1.962887 l 1.859179,-0.09328 0.03652,5.348597 0.03652,5.348607 0.389591,0.04471 c 0.217018,0.02487 0.606135,-0.08311 0.878467,-0.243737 0.740529,-0.436928 0.73667,-0.355242 -0.01974,0.418876 -1.253232,1.282537 -2.054226,1.444055 -2.986141,0.602128 -0.630031,-0.569191 -0.836932,-1.141767 -0.838068,-2.319244 -4.23e-4,-0.440472 -0.04086,-0.800867 -0.08972,-0.800867 -0.04896,0 -0.797451,0.686332 -1.663363,1.525179 -1.707226,1.653858 -2.392175,2.096136 -3.246312,2.096136 -0.436179,0 -0.65756,-0.09884 -1.049657,-0.468642 z m 4.44656,-3.341353 c 0.383017,-0.178869 0.900103,-0.497216 1.149061,-0.707424 l 0.452672,-0.382187 v -3.121444 -3.121433 l -0.591952,0.01056 c -2.211075,0.03958 -4.143601,2.401603 -4.143601,5.06453 0,1.090905 0.181456,1.702667 0.650087,2.191809 0.317015,0.330901 0.489183,0.393292 1.08216,0.392147 0.444786,-7.89e-4 0.962315,-0.121454 1.401573,-0.326588 z m 41.344398,3.604801 c -0.16112,-0.112847 -0.40821,-0.473231 -0.54912,-0.800855 -0.22621,-0.52596 -0.26108,-1.084845 -0.29787,-4.774127 -0.0229,-2.298131 -0.075,-4.32712 -0.11557,-4.508862 -0.0683,-0.305653 -0.12612,-0.325413 -0.77048,-0.263497 l -0.69661,0.06692 0.38174,-0.398435 c 0.85271,-0.890054 2.52605,-1.26478 3.09724,-0.693605 0.42431,0.424314 0.57443,1.834187 0.57443,5.394869 0,3.888948 0.0176,3.954259 1.06865,3.954259 0.50537,0 0.76949,-0.0987 1.29345,-0.483319 0.68143,-0.500208 1.27486,-1.248158 1.52998,-1.928341 0.0844,-0.225072 0.14729,-1.530291 0.14757,-3.064175 0,-2.406853 0.0275,-2.716475 0.27311,-3.119143 0.30199,-0.495243 1.19353,-1.015398 1.7404,-1.015398 h 0.35377 v 4.846969 c 0,3.584172 0.0436,4.890527 0.16713,5.014113 0.29292,0.292931 1.12306,0.192935 1.71015,-0.206014 l 0.54914,-0.373146 -0.61741,0.732218 c -0.95342,1.130692 -1.84515,1.723631 -2.69869,1.794401 -0.56748,0.04708 -0.78629,0.002 -1.06012,-0.220098 -0.3059,-0.247714 -0.35085,-0.407317 -0.39627,-1.407297 -0.0282,-0.620338 -0.0963,-1.12789 -0.15146,-1.12789 -0.0551,0 -0.2522,0.162111 -0.43792,0.360247 -0.64492,0.688049 -2.17287,1.861706 -2.78561,2.139693 -0.73236,0.332235 -1.89249,0.372683 -2.30963,0.08054 z m 12.48766,-4.500748 c 0,-2.608325 -0.0381,-4.841529 -0.0845,-4.962707 -0.11144,-0.290405 -0.43929,-0.278273 -1.06222,0.03928 l -0.50926,0.259638 0.58427,-0.693181 c 0.90206,-1.070177 1.85981,-1.776022 2.4099,-1.776022 0.73233,0 0.90108,0.397378 1.04985,2.472343 0.0701,0.976645 0.14328,1.829213 0.16281,1.894593 0.0194,0.06534 0.32277,-0.313145 0.67388,-0.841166 1.64818,-2.478621 2.85232,-3.52577 4.05435,-3.52577 1.35349,0 1.65781,0.517016 1.65158,2.805969 -0.002,0.831454 0.0401,1.509908 0.0941,1.507678 0.054,-0.002 0.35996,-0.362626 0.67989,-0.800867 1.93086,-2.645032 2.94877,-3.51278 4.12065,-3.51278 0.37308,0 0.7981,0.06416 0.94451,0.142468 0.58766,0.314497 0.61793,0.561748 0.69045,5.637688 l 0.0697,4.874833 0.38332,0.04403 c 0.23433,0.02695 0.55836,-0.08054 0.83381,-0.276684 l 0.45047,-0.320785 -0.32119,0.451112 c -0.55406,0.778066 -1.2186,1.18876 -2.03289,1.256292 -0.8702,0.07215 -1.24248,-0.09485 -1.57288,-0.705499 -0.21041,-0.38892 -0.24924,-0.966915 -0.29216,-4.34841 -0.0552,-4.354046 -0.0627,-4.387348 -0.98174,-4.387348 -0.41808,0 -0.60526,0.116025 -1.19712,0.74193 -0.38586,0.408049 -0.96796,1.138628 -1.29352,1.623496 l -0.59194,0.881577 v 2.466498 c 0,2.257209 -0.0237,2.496614 -0.27911,2.821337 -0.33808,0.429812 -1.34103,0.936267 -1.85408,0.936267 h -0.37386 v -4.466147 c 0,-2.812276 -0.0534,-4.565912 -0.1442,-4.735553 -0.10529,-0.196764 -0.29297,-0.269409 -0.69601,-0.269409 -0.69561,0 -1.33851,0.550318 -2.34676,2.008823 l -0.7129,1.031249 -0.002,2.41465 c -0.002,1.645656 -0.0572,2.523717 -0.17536,2.757111 -0.24126,0.476745 -1.18792,1.110438 -1.80954,1.211322 l -0.52008,0.08439 z m 31.66438,4.500748 c -0.1611,-0.112847 -0.40822,-0.473231 -0.54911,-0.800855 -0.2262,-0.52596 -0.26107,-1.084845 -0.29787,-4.774127 -0.0229,-2.298131 -0.075,-4.32712 -0.11556,-4.508862 -0.0684,-0.305653 -0.12615,-0.325413 -0.77048,-0.263497 l -0.69661,0.06692 0.38173,-0.398435 c 0.8527,-0.890054 2.52606,-1.26478 3.09722,-0.693605 0.42433,0.424314 0.57445,1.834187 0.57445,5.394869 0,3.888948 0.0175,3.954259 1.06865,3.954259 0.50537,0 0.76947,-0.0987 1.29344,-0.483319 0.68142,-0.500208 1.27485,-1.248158 1.52998,-1.928341 0.0843,-0.225072 0.14729,-1.530291 0.14757,-3.064175 0,-2.406853 0.0275,-2.716475 0.27311,-3.119143 0.30197,-0.495243 1.19352,-1.015398 1.74042,-1.015398 h 0.35374 v 4.846969 c 0,3.584172 0.0436,4.890527 0.16713,5.014113 0.29293,0.292931 1.12306,0.192935 1.71016,-0.206014 l 0.54914,-0.373146 -0.61743,0.732218 c -0.95341,1.130692 -1.84512,1.723631 -2.69867,1.794401 -0.56749,0.04708 -0.78628,0.002 -1.0601,-0.220098 -0.30593,-0.247714 -0.35088,-0.407317 -0.39627,-1.407297 -0.0282,-0.620338 -0.0963,-1.12789 -0.15149,-1.12789 -0.055,0 -0.25219,0.162111 -0.43793,0.360247 -0.64491,0.688049 -2.17285,1.861706 -2.78559,2.139693 -0.73233,0.332235 -1.89248,0.372683 -2.30963,0.08054 z m 12.76624,-4.533359 v -4.738533 l -0.32891,-0.149862 c -0.2567,-0.116952 -0.43024,-0.09742 -0.79066,0.08893 l -0.46176,0.238782 0.44759,-0.565143 c 0.62292,-0.786496 1.80116,-1.82266 2.18098,-1.917988 1.07953,-0.270959 1.34569,0.215963 1.43252,2.620841 0.0352,0.975344 0.11255,1.743353 0.17186,1.706694 0.0593,-0.03662 0.56491,-0.70242 1.12356,-1.479489 1.60753,-2.236038 2.44913,-2.904583 3.65635,-2.904583 0.53295,0 0.67733,0.06771 1.05018,0.492331 0.5897,0.671634 0.60323,1.552677 0.0375,2.440126 -0.47924,0.751771 -2.44767,2.816213 -2.32783,2.441369 0.22649,-0.70848 0.24096,-1.839883 0.0299,-2.344877 -0.20154,-0.482332 -0.26122,-0.521892 -0.7875,-0.521892 -0.49619,0 -0.65214,0.08508 -1.21259,0.661586 -0.35378,0.363868 -0.88417,0.980664 -1.1787,1.370639 l -0.5355,0.709063 v 2.584439 2.58443 l -0.49137,0.431421 c -0.54863,0.48169 -1.47367,0.990248 -1.80123,0.990248 -0.18889,0 -0.21446,-0.564868 -0.21446,-4.738544 z"
       id="path217" />
  </g>
</svg>
